<?xml version="1.0" standalone="no"?>
<!DOCTYPE svg PUBLIC "-//W3C//DTD SVG 20010904//EN"
 "http://www.w3.org/TR/2001/REC-SVG-20010904/DTD/svg10.dtd">
<svg version="1.0" xmlns="http://www.w3.org/2000/svg"
 width="700.000000pt" height="700.000000pt" viewBox="0 0 700.000000 700.000000"
 preserveAspectRatio="xMidYMid meet">
<metadata>
Professional favicon for Sultan Arfeen Portfolio
</metadata>
<g transform="translate(0.000000,700.000000) scale(0.100000,-0.100000)"
fill="#000000" stroke="none">
<path d="M0 3500 l0 -3500 3500 0 3500 0 0 3500 0 3500 -3500 0 -3500 0 0
-3500z m2440 1475 c195 -47 331 -155 408 -324 50 -108 56 -149 56 -366 l0
-200 -242 -3 -243 -2 3 172 c3 167 2 175 -22 226 -31 65 -81 103 -154 117
-111 21 -220 -16 -281 -94 -56 -72 -59 -98 -63 -481 l-4 -355 -239 -3 -239 -2
0 750 0 750 240 0 240 0 0 -102 0 -103 24 38 c53 87 148 161 256 200 86 31
169 37 260 22z m1782 -2 c186 -45 329 -175 380 -347 22 -76 22 -235 -1 -311
-55 -184 -203 -299 -516 -401 -186 -61 -246 -99 -264 -168 -23 -85 35 -176
124 -195 103 -22 213 30 256 121 14 30 22 72 25 143 l5 100 238 3 237 2 -5
-122 c-9 -213 -50 -332 -156 -449 -107 -119 -246 -182 -445 -203 -321 -33
-573 79 -695 309 -63 120 -79 197 -73 357 7 176 42 265 142 363 89 88 192 143
426 227 209 75 275 113 297 171 41 103 -41 212 -159 212 -110 0 -182 -68 -203
-191 l-7 -44 -243 -3 -244 -2 5 112 c11 238 90 400 252 516 128 92 238 124
444 129 111 3 136 1 180 -13z"/>
</g>
</svg>
